<mxfile host="Electron" agent="Mozilla/5.0 (Macintosh; Intel Mac OS X 10_15_7) AppleWebKit/537.36 (KHTML, like Gecko) draw.io/26.2.2 Chrome/134.0.6998.178 Electron/35.1.2 Safari/537.36" version="26.2.2">
  <diagram id="sfGkyqJ-wVHbOri7GWkh" name="Seite-1">
    <mxGraphModel dx="948" dy="617" grid="1" gridSize="10" guides="1" tooltips="1" connect="1" arrows="1" fold="1" page="1" pageScale="1" pageWidth="827" pageHeight="1169" math="0" shadow="0">
      <root>
        <mxCell id="0" />
        <mxCell id="1" parent="0" />
        <mxCell id="nMVIfYfNS6cF1Cbamtte-1" value="" style="rounded=0;whiteSpace=wrap;html=1;imageWidth=200;imageHeight=24;fillColor=light-dark(#FDFFEB,#572B2B);strokeColor=light-dark(#e6e8d9, #6c464e);gradientDirection=west;imageAspect=0;" parent="1" vertex="1">
          <mxGeometry x="20" y="40" width="768" height="432" as="geometry" />
        </mxCell>
        <mxCell id="syaPfJO266UAXvkZv1LS-2" value="" style="sketch=0;shadow=0;dashed=0;html=1;strokeColor=none;labelPosition=center;verticalLabelPosition=bottom;verticalAlign=top;outlineConnect=0;align=center;shape=mxgraph.office.databases.database_cube;fillColor=#2072B8;" parent="1" vertex="1">
          <mxGeometry x="50" y="110" width="570" height="350" as="geometry" />
        </mxCell>
        <mxCell id="syaPfJO266UAXvkZv1LS-4" value="Architecture Trend 2025" style="shape=hexagon;strokeWidth=4;html=1;fillColor=#F5AB50;strokeColor=#ffffff;shadow=0;fontSize=10;fontColor=#FFFFFF;align=center;fontStyle=0;whiteSpace=wrap;spacing=10;rounded=0;" parent="1" vertex="1">
          <mxGeometry x="480" y="111" width="112" height="102" as="geometry" />
        </mxCell>
        <mxCell id="syaPfJO266UAXvkZv1LS-5" value="Enhanced maintainabilty" style="shape=hexagon;strokeWidth=4;html=1;fillColor=#E85642;strokeColor=#ffffff;shadow=0;fontSize=10;fontColor=#FFFFFF;align=center;fontStyle=0;whiteSpace=wrap;spacing=10;rounded=0;" parent="1" vertex="1">
          <mxGeometry x="480" y="213" width="112" height="102" as="geometry" />
        </mxCell>
        <mxCell id="syaPfJO266UAXvkZv1LS-6" value="Modular Monolith/Modulith" style="shape=hexagon;strokeWidth=4;html=1;fillColor=#12AAB5;strokeColor=#ffffff;shadow=0;fontSize=10;fontColor=#FFFFFF;align=center;fontStyle=0;whiteSpace=wrap;spacing=10;rounded=0;" parent="1" vertex="1">
          <mxGeometry x="564" y="162" width="112" height="102" as="geometry" />
        </mxCell>
        <mxCell id="syaPfJO266UAXvkZv1LS-7" value="Loose coupling between modules" style="shape=hexagon;strokeWidth=4;html=1;fillColor=#1699D3;strokeColor=#ffffff;shadow=0;fontSize=10;fontColor=#FFFFFF;align=center;fontStyle=0;whiteSpace=wrap;spacing=10;rounded=0;" parent="1" vertex="1">
          <mxGeometry x="564" y="60" width="112" height="102" as="geometry" />
        </mxCell>
        <mxCell id="syaPfJO266UAXvkZv1LS-8" value="Unified application process" style="shape=hexagon;strokeWidth=4;html=1;fillColor=#736CA8;strokeColor=#ffffff;shadow=0;fontSize=10;fontColor=#FFFFFF;align=center;fontStyle=0;whiteSpace=wrap;spacing=10;rounded=0;" parent="1" vertex="1">
          <mxGeometry x="648" y="111" width="112" height="102" as="geometry" />
        </mxCell>
        <mxCell id="syaPfJO266UAXvkZv1LS-9" value="Spring Boot Modulith" style="shape=hexagon;strokeWidth=4;html=1;fillColor=#2F5B7C;strokeColor=#ffffff;shadow=0;fontSize=10;fontColor=#FFFFFF;align=center;fontStyle=0;whiteSpace=wrap;spacing=10;rounded=0;" parent="1" vertex="1">
          <mxGeometry x="648" y="213" width="112" height="102" as="geometry" />
        </mxCell>
        <mxCell id="syaPfJO266UAXvkZv1LS-10" value="Unified database schema" style="shape=hexagon;strokeWidth=4;html=1;fillColor=#777777;strokeColor=#ffffff;shadow=0;fontSize=10;fontColor=#FFFFFF;align=center;fontStyle=0;whiteSpace=wrap;spacing=10;rounded=0;" parent="1" vertex="1">
          <mxGeometry x="564" y="264" width="112" height="102" as="geometry" />
        </mxCell>
      </root>
    </mxGraphModel>
  </diagram>
</mxfile>
